<svg xmlns="http://www.w3.org/2000/svg" viewBox="0 0 260 200" role="img" aria-label="Tyre illustration">
<defs>
<radialGradient id="rub" cx="45%" cy="40%" r="70%"><stop offset="0" stop-color="#3b4048"/><stop offset="1" stop-color="#1a1d22"/></radialGradient>
<radialGradient id="wall" cx="40%" cy="35%" r="75%"><stop offset="0" stop-color="#2e333b" stop-opacity=".9"/><stop offset="1" stop-color="#15171b" stop-opacity=".9"/></radialGradient>
<linearGradient id="rim" x1="0" y1="0" x2="1" y2="1"><stop offset="0" stop-color="#eef0f3"/><stop offset=".55" stop-color="#b9bec6"/><stop offset="1" stop-color="#8d949e"/></linearGradient>
<linearGradient id="bandShade" x1="0" x2="1"><stop offset="0" stop-color="#000" stop-opacity=".45"/><stop offset=".18" stop-color="#000" stop-opacity="0"/><stop offset=".82" stop-color="#000" stop-opacity="0"/><stop offset="1" stop-color="#000" stop-opacity=".45"/></linearGradient>
</defs>
<circle cx="72" cy="100" r="66" fill="url(#rub)"/><rect x="69.75" y="34" width="4.5" height="4" rx="1" fill="#0c0e11" transform="rotate(0 72 100)"/><rect x="69.75" y="34" width="4.5" height="4" rx="1" fill="#0c0e11" transform="rotate(8.18 72 100)"/><rect x="69.75" y="34" width="4.5" height="4" rx="1" fill="#0c0e11" transform="rotate(16.36 72 100)"/><rect x="69.75" y="34" width="4.5" height="4" rx="1" fill="#0c0e11" transform="rotate(24.55 72 100)"/><rect x="69.75" y="34" width="4.5" height="4" rx="1" fill="#0c0e11" transform="rotate(32.73 72 100)"/><rect x="69.75" y="34" width="4.5" height="4" rx="1" fill="#0c0e11" transform="rotate(40.91 72 100)"/><rect x="69.75" y="34" width="4.5" height="4" rx="1" fill="#0c0e11" transform="rotate(49.09 72 100)"/><rect x="69.75" y="34" width="4.5" height="4" rx="1" fill="#0c0e11" transform="rotate(57.27 72 100)"/><rect x="69.75" y="34" width="4.5" height="4" rx="1" fill="#0c0e11" transform="rotate(65.45 72 100)"/><rect x="69.75" y="34" width="4.5" height="4" rx="1" fill="#0c0e11" transform="rotate(73.64 72 100)"/><rect x="69.75" y="34" width="4.5" height="4" rx="1" fill="#0c0e11" transform="rotate(81.82 72 100)"/><rect x="69.75" y="34" width="4.5" height="4" rx="1" fill="#0c0e11" transform="rotate(90 72 100)"/><rect x="69.75" y="34" width="4.5" height="4" rx="1" fill="#0c0e11" transform="rotate(98.18 72 100)"/><rect x="69.75" y="34" width="4.5" height="4" rx="1" fill="#0c0e11" transform="rotate(106.36 72 100)"/><rect x="69.75" y="34" width="4.5" height="4" rx="1" fill="#0c0e11" transform="rotate(114.55 72 100)"/><rect x="69.75" y="34" width="4.5" height="4" rx="1" fill="#0c0e11" transform="rotate(122.73 72 100)"/><rect x="69.75" y="34" width="4.5" height="4" rx="1" fill="#0c0e11" transform="rotate(130.91 72 100)"/><rect x="69.75" y="34" width="4.5" height="4" rx="1" fill="#0c0e11" transform="rotate(139.09 72 100)"/><rect x="69.75" y="34" width="4.5" height="4" rx="1" fill="#0c0e11" transform="rotate(147.27 72 100)"/><rect x="69.75" y="34" width="4.5" height="4" rx="1" fill="#0c0e11" transform="rotate(155.45 72 100)"/><rect x="69.75" y="34" width="4.5" height="4" rx="1" fill="#0c0e11" transform="rotate(163.64 72 100)"/><rect x="69.75" y="34" width="4.5" height="4" rx="1" fill="#0c0e11" transform="rotate(171.82 72 100)"/><rect x="69.75" y="34" width="4.5" height="4" rx="1" fill="#0c0e11" transform="rotate(180 72 100)"/><rect x="69.75" y="34" width="4.5" height="4" rx="1" fill="#0c0e11" transform="rotate(188.18 72 100)"/><rect x="69.75" y="34" width="4.5" height="4" rx="1" fill="#0c0e11" transform="rotate(196.36 72 100)"/><rect x="69.75" y="34" width="4.5" height="4" rx="1" fill="#0c0e11" transform="rotate(204.55 72 100)"/><rect x="69.75" y="34" width="4.5" height="4" rx="1" fill="#0c0e11" transform="rotate(212.73 72 100)"/><rect x="69.75" y="34" width="4.5" height="4" rx="1" fill="#0c0e11" transform="rotate(220.91 72 100)"/><rect x="69.75" y="34" width="4.5" height="4" rx="1" fill="#0c0e11" transform="rotate(229.09 72 100)"/><rect x="69.75" y="34" width="4.5" height="4" rx="1" fill="#0c0e11" transform="rotate(237.27 72 100)"/><rect x="69.75" y="34" width="4.5" height="4" rx="1" fill="#0c0e11" transform="rotate(245.45 72 100)"/><rect x="69.75" y="34" width="4.5" height="4" rx="1" fill="#0c0e11" transform="rotate(253.64 72 100)"/><rect x="69.75" y="34" width="4.5" height="4" rx="1" fill="#0c0e11" transform="rotate(261.82 72 100)"/><rect x="69.75" y="34" width="4.5" height="4" rx="1" fill="#0c0e11" transform="rotate(270 72 100)"/><rect x="69.75" y="34" width="4.5" height="4" rx="1" fill="#0c0e11" transform="rotate(278.18 72 100)"/><rect x="69.75" y="34" width="4.5" height="4" rx="1" fill="#0c0e11" transform="rotate(286.36 72 100)"/><rect x="69.75" y="34" width="4.5" height="4" rx="1" fill="#0c0e11" transform="rotate(294.55 72 100)"/><rect x="69.75" y="34" width="4.5" height="4" rx="1" fill="#0c0e11" transform="rotate(302.73 72 100)"/><rect x="69.75" y="34" width="4.5" height="4" rx="1" fill="#0c0e11" transform="rotate(310.91 72 100)"/><rect x="69.75" y="34" width="4.5" height="4" rx="1" fill="#0c0e11" transform="rotate(319.09 72 100)"/><rect x="69.75" y="34" width="4.5" height="4" rx="1" fill="#0c0e11" transform="rotate(327.27 72 100)"/><rect x="69.75" y="34" width="4.5" height="4" rx="1" fill="#0c0e11" transform="rotate(335.45 72 100)"/><rect x="69.75" y="34" width="4.5" height="4" rx="1" fill="#0c0e11" transform="rotate(343.64 72 100)"/><rect x="69.75" y="34" width="4.5" height="4" rx="1" fill="#0c0e11" transform="rotate(351.82 72 100)"/><circle cx="72" cy="100" r="60" fill="#23272e"/><circle cx="72" cy="100" r="60" fill="url(#wall)"/><circle cx="72" cy="100" r="54" fill="none" stroke="#30353d" stroke-width="1.2"/><circle cx="72" cy="100" r="36" fill="url(#rim)"/><circle cx="72" cy="100" r="31" fill="none" stroke="#8b929c" stroke-width="1.4"/><circle cx="72" cy="81.28" r="2" fill="#5d646e" transform="rotate(0 72 100)"/><circle cx="72" cy="81.28" r="2" fill="#5d646e" transform="rotate(36 72 100)"/><circle cx="72" cy="81.28" r="2" fill="#5d646e" transform="rotate(72 72 100)"/><circle cx="72" cy="81.28" r="2" fill="#5d646e" transform="rotate(108 72 100)"/><circle cx="72" cy="81.28" r="2" fill="#5d646e" transform="rotate(144 72 100)"/><circle cx="72" cy="81.28" r="2" fill="#5d646e" transform="rotate(180 72 100)"/><circle cx="72" cy="81.28" r="2" fill="#5d646e" transform="rotate(216 72 100)"/><circle cx="72" cy="81.28" r="2" fill="#5d646e" transform="rotate(252 72 100)"/><circle cx="72" cy="81.28" r="2" fill="#5d646e" transform="rotate(288 72 100)"/><circle cx="72" cy="81.28" r="2" fill="#5d646e" transform="rotate(324 72 100)"/><circle cx="72" cy="100" r="10.8" fill="#c3c8cf" stroke="#7a818b"/>
<clipPath id="bc"><rect x="153" y="17" width="90" height="166" rx="12"/></clipPath><rect x="150" y="14" width="96" height="172" rx="14" fill="url(#rub)"/><rect x="150" y="14" width="96" height="172" rx="14" fill="url(#bandShade)"/><g clip-path="url(#bc)" fill="#0c0e11" stroke="#0c0e11"><path d="M169.2 14 L172.7 24 L165.7 34 L172.7 44 L165.7 54 L172.7 64 L165.7 74 L172.7 84 L165.7 94 L172.7 104 L165.7 114 L172.7 124 L165.7 134 L172.7 144 L165.7 154 L172.7 164 L165.7 174 L172.7 184 L165.7 194" fill="none" stroke-width="4" stroke-linejoin="round"/><path d="M188.4 14 L191.9 24 L184.9 34 L191.9 44 L184.9 54 L191.9 64 L184.9 74 L191.9 84 L184.9 94 L191.9 104 L184.9 114 L191.9 124 L184.9 134 L191.9 144 L184.9 154 L191.9 164 L184.9 174 L191.9 184 L184.9 194" fill="none" stroke-width="4" stroke-linejoin="round"/><path d="M207.6 14 L211.1 24 L204.1 34 L211.1 44 L204.1 54 L211.1 64 L204.1 74 L211.1 84 L204.1 94 L211.1 104 L204.1 114 L211.1 124 L204.1 134 L211.1 144 L204.1 154 L211.1 164 L204.1 174 L211.1 184 L204.1 194" fill="none" stroke-width="4" stroke-linejoin="round"/><path d="M226.8 14 L230.3 24 L223.3 34 L230.3 44 L223.3 54 L230.3 64 L223.3 74 L230.3 84 L223.3 94 L230.3 104 L223.3 114 L230.3 124 L223.3 134 L230.3 144 L223.3 154 L230.3 164 L223.3 174 L230.3 184 L223.3 194" fill="none" stroke-width="4" stroke-linejoin="round"/><rect x="150" y="18" width="9" height="5.6" stroke="none"/><rect x="237" y="18" width="9" height="5.6" stroke="none"/><rect x="150" y="34" width="9" height="5.6" stroke="none"/><rect x="237" y="34" width="9" height="5.6" stroke="none"/><rect x="150" y="50" width="9" height="5.6" stroke="none"/><rect x="237" y="50" width="9" height="5.6" stroke="none"/><rect x="150" y="66" width="9" height="5.6" stroke="none"/><rect x="237" y="66" width="9" height="5.6" stroke="none"/><rect x="150" y="82" width="9" height="5.6" stroke="none"/><rect x="237" y="82" width="9" height="5.6" stroke="none"/><rect x="150" y="98" width="9" height="5.6" stroke="none"/><rect x="237" y="98" width="9" height="5.6" stroke="none"/><rect x="150" y="114" width="9" height="5.6" stroke="none"/><rect x="237" y="114" width="9" height="5.6" stroke="none"/><rect x="150" y="130" width="9" height="5.6" stroke="none"/><rect x="237" y="130" width="9" height="5.6" stroke="none"/><rect x="150" y="146" width="9" height="5.6" stroke="none"/><rect x="237" y="146" width="9" height="5.6" stroke="none"/><rect x="150" y="162" width="9" height="5.6" stroke="none"/><rect x="237" y="162" width="9" height="5.6" stroke="none"/><rect x="150" y="178" width="9" height="5.6" stroke="none"/><rect x="237" y="178" width="9" height="5.6" stroke="none"/><line x1="172.2" y1="23" x2="185.4" y2="26" stroke-width="1"/><line x1="172.2" y1="33" x2="185.4" y2="36" stroke-width="1"/><line x1="172.2" y1="43" x2="185.4" y2="46" stroke-width="1"/><line x1="172.2" y1="53" x2="185.4" y2="56" stroke-width="1"/><line x1="172.2" y1="63" x2="185.4" y2="66" stroke-width="1"/><line x1="172.2" y1="73" x2="185.4" y2="76" stroke-width="1"/><line x1="172.2" y1="83" x2="185.4" y2="86" stroke-width="1"/><line x1="172.2" y1="93" x2="185.4" y2="96" stroke-width="1"/><line x1="172.2" y1="103" x2="185.4" y2="106" stroke-width="1"/><line x1="172.2" y1="113" x2="185.4" y2="116" stroke-width="1"/><line x1="172.2" y1="123" x2="185.4" y2="126" stroke-width="1"/><line x1="172.2" y1="133" x2="185.4" y2="136" stroke-width="1"/><line x1="172.2" y1="143" x2="185.4" y2="146" stroke-width="1"/><line x1="172.2" y1="153" x2="185.4" y2="156" stroke-width="1"/><line x1="172.2" y1="163" x2="185.4" y2="166" stroke-width="1"/><line x1="172.2" y1="173" x2="185.4" y2="176" stroke-width="1"/><line x1="172.2" y1="183" x2="185.4" y2="186" stroke-width="1"/></g><rect x="150" y="14" width="96" height="172" rx="14" fill="none" stroke="#3a4048" stroke-width="1.2"/>
</svg>
